<?xml version="1.0" encoding="UTF-8"?>
<svg id="Calque_2" data-name="Calque 2" xmlns="http://www.w3.org/2000/svg" xmlns:xlink="http://www.w3.org/1999/xlink" viewBox="0 0 32 32">
  <defs>
    <style>
      .cls-1 {
        opacity: .72;
      }

      .cls-2 {
        fill: rgba(27, 20, 100, .93);
      }

      .cls-3 {
        opacity: .63;
      }

      .cls-4 {
        fill: #f7931e;
      }

      .cls-5 {
        fill: none;
        stroke: #000;
        stroke-miterlimit: 10;
        stroke-width: .25px;
      }

      .cls-6 {
        fill: #1b1464;
      }

      .Style_graphique_2 {
        fill: url(#Dégradé_sans_nom_23);
      }
    </style>
    <linearGradient id="Dégradé_sans_nom_23" data-name="Dégradé sans nom 23" x1="18.34" y1="31.33" x2="13.77" y2="27.15" gradientUnits="userSpaceOnUse">
      <stop offset="0" stop-color="#fff"/>
      <stop offset=".04" stop-color="#d9d8e5" stop-opacity=".98"/>
      <stop offset=".08" stop-color="#b1afca" stop-opacity=".97"/>
      <stop offset=".13" stop-color="#8d8ab1" stop-opacity=".95"/>
      <stop offset=".18" stop-color="#6e699c" stop-opacity=".94"/>
      <stop offset=".24" stop-color="#544e8a" stop-opacity=".93"/>
      <stop offset=".31" stop-color="#3e397c" stop-opacity=".92"/>
      <stop offset=".39" stop-color="#2e2871" stop-opacity=".91"/>
      <stop offset=".49" stop-color="#231c69" stop-opacity=".9"/>
      <stop offset=".62" stop-color="#1c1565" stop-opacity=".9"/>
      <stop offset="1" stop-color="#1b1464" stop-opacity=".9"/>
    </linearGradient>
  </defs>
  <g id="Calque_1-2" data-name="Calque 1">
    <g id="parametres">
      <ellipse class="cls-6" cx="16" cy="15.8" rx="8.4" ry="8.3"/>
      <line class="cls-5" x1="16" y1="3.16" x2="16" y2="2.95"/>
      <polyline class="cls-5" points="16 6.32 16 7.51 16 10.67 16 12.25 16 15.8"/>
      <path class="cls-2" d="m28.4,12.67c-.31-1.19-.78-2.31-1.41-3.34-1.09-1.8-2.62-3.31-4.44-4.39-1.04-.62-2.18-1.09-3.38-1.39-1.02-.26-2.08-.39-3.18-.39s-2.16.13-3.18.39c-1.2.3-2.34.77-3.38,1.39-1.82,1.07-3.35,2.59-4.44,4.39-.62,1.03-1.1,2.15-1.41,3.34-.26,1-.4,2.05-.4,3.14s.14,2.13.4,3.14c.31,1.19.78,2.31,1.41,3.34,1.09,1.8,2.62,3.31,4.44,4.39,1.06.63,2.22,1.11,3.45,1.41.99.24,2.03.38,3.1.38s2.11-.13,3.1-.38c1.23-.3,2.39-.78,3.45-1.41,1.82-1.07,3.35-2.59,4.44-4.39.62-1.03,1.1-2.15,1.41-3.34.26-1,.4-2.05.4-3.14s-.14-2.13-.4-3.14Zm-12.4,11.43c-4.64,0-8.4-3.71-8.4-8.3s3.76-8.3,8.4-8.3,8.4,3.71,8.4,8.3-3.76,8.3-8.4,8.3Z"/>
      <path class="cls-6" d="m26.47,13.16c-.26-1-.66-1.95-1.19-2.82-.92-1.52-2.21-2.79-3.75-3.7-.88-.52-1.84-.92-2.85-1.17-.86-.22-1.76-.33-2.68-.33s-1.82.11-2.68.33c-1.02.26-1.97.65-2.85,1.17-1.54.91-2.83,2.18-3.75,3.7-.53.87-.93,1.81-1.19,2.82-.22.85-.33,1.73-.33,2.65s.11,1.8.33,2.65c.26,1,.66,1.95,1.19,2.82.92,1.52,2.21,2.79,3.75,3.7.89.53,1.87.93,2.91,1.19.84.21,1.71.32,2.62.32s1.78-.11,2.62-.32c1.04-.25,2.02-.66,2.91-1.19,1.54-.91,2.83-2.18,3.75-3.7.53-.87.93-1.81,1.19-2.82.22-.85.33-1.73.33-2.65s-.11-1.8-.33-2.65Zm-10.47,9.65c-3.91,0-7.09-3.13-7.09-7s3.17-7,7.09-7,7.09,3.13,7.09,7-3.17,7-7.09,7Z"/>
      <path class="Style_graphique_2" d="m19.2,28.84c0,1.75-1.43,3.16-3.2,3.16s-3.2-1.41-3.2-3.16c0-.26.03-.53.1-.77.99.24,2.03.38,3.1.38s2.11-.13,3.1-.38c.06.24.1.51.1.77Z"/>
      <path class="Style_graphique_2" d="m28.4,24.89c0,1.75-1.43,3.16-3.2,3.16-1.1,0-2.07-.55-2.64-1.39,1.82-1.07,3.35-2.59,4.44-4.39.85.56,1.4,1.52,1.4,2.61Z"/>
      <path class="Style_graphique_2" d="m32,15.8c0,1.75-1.43,3.16-3.2,3.16-.13,0-.27,0-.4-.02.26-1,.4-2.05.4-3.14s-.14-2.13-.4-3.14c.13-.02.26-.02.4-.02,1.77,0,3.2,1.41,3.2,3.16Z"/>
      <path class="Style_graphique_2" d="m28.4,6.72c0,1.09-.56,2.05-1.4,2.61-1.09-1.8-2.62-3.31-4.44-4.39.57-.84,1.54-1.39,2.64-1.39,1.77,0,3.2,1.41,3.2,3.16Z"/>
      <path class="Style_graphique_2" d="m19.2,3.16c0,.13,0,.26-.02.39-1.02-.26-2.08-.39-3.18-.39s-2.16.13-3.18.39c-.02-.13-.02-.26-.02-.39,0-1.75,1.43-3.16,3.2-3.16s3.2,1.41,3.2,3.16Z"/>
      <path class="Style_graphique_2" d="m9.44,4.94c-1.82,1.07-3.35,2.59-4.44,4.39-.85-.56-1.4-1.52-1.4-2.61,0-1.75,1.43-3.16,3.2-3.16,1.1,0,2.07.55,2.64,1.39Z"/>
      <path class="Style_graphique_2" d="m3.2,15.8c0,1.08.14,2.13.4,3.14-.13.02-.26.02-.4.02-1.77,0-3.2-1.41-3.2-3.16s1.43-3.16,3.2-3.16c.13,0,.27,0,.4.02-.26,1-.4,2.05-.4,3.14Z"/>
      <path class="Style_graphique_2" d="m9.44,26.66c-.57.84-1.54,1.39-2.64,1.39-1.77,0-3.2-1.41-3.2-3.16,0-1.09.56-2.05,1.4-2.61,1.09,1.8,2.62,3.31,4.44,4.39Z"/>
      <g class="cls-1">
        <ellipse class="cls-4" cx="16" cy="15.8" rx="8.4" ry="8.3"/>
      </g>
      <g class="cls-3">
        <ellipse class="cls-4" cx="16" cy="15.8" rx="5.2" ry="5.14"/>
      </g>
      <ellipse class="cls-4" cx="16" cy="15.8" rx="2.4" ry="2.37"/>
    </g>
  </g>
</svg>